<svg width="902" height="144" viewBox="0 0 902 144" fill="none" xmlns="http://www.w3.org/2000/svg">
<path d="M44.0067 59.9871L6.09851 39.9948C3.33318 38.5365 0 40.5357 0 43.6539V82.8389L44.0067 59.9871Z" fill="url(#paint0_linear_17297_506632)"/>
<path d="M43.9941 59.99L81.9091 39.9943C84.6744 38.536 88.0009 40.5319 88.0009 43.6467V82.8384L43.9941 59.99Z" fill="url(#paint1_linear_17297_506632)"/>
<path d="M87.9933 82.808L47.5348 104.43C45.2735 105.64 42.5552 105.636 40.2972 104.427L0 82.8349V115.471C0 118.3 1.57251 120.894 4.08584 122.211L39.101 140.581C42.1184 142.164 45.717 142.167 48.7377 140.588L83.8268 122.255C86.3536 120.935 87.9396 118.327 87.9429 115.485L87.9933 82.8047V82.808Z" fill="url(#paint2_linear_17297_506632)"/>
<path d="M122.01 140.07V41.2803C122.01 40.3603 122.76 39.6103 123.68 39.6103H150.15C151.07 39.6103 151.82 40.3603 151.82 41.2803V57.2903C151.82 59.1103 154.32 59.6103 155.02 57.9203C159.81 46.2903 168.97 37.5303 185.17 37.5303C201.37 37.5303 210.67 45.8003 213.5 60.0403C213.83 61.6903 216.13 61.8603 216.69 60.2803C221.2 47.4303 230.48 37.5303 247.7 37.5303C266.46 37.5303 276.88 49.4103 276.88 70.4603V140.08C276.88 141 276.13 141.75 275.21 141.75H248.74C247.82 141.75 247.07 141 247.07 140.08V80.8903C247.07 67.5503 242.9 60.6703 230.81 60.6703C218.72 60.6703 214.35 68.5903 214.35 85.2603V140.08C214.35 141 213.6 141.75 212.68 141.75H186.21C185.29 141.75 184.54 141 184.54 140.08V80.8903C184.54 67.5503 180.37 60.6703 168.28 60.6703C156.19 60.6703 151.81 68.5903 151.81 85.2603V140.08C151.81 141 151.06 141.75 150.14 141.75H123.67C122.75 141.75 122 141 122 140.08L122.01 140.07Z" fill="#0F0F0F"/>
<path d="M286.25 90.6803C286.25 59.2103 306.05 37.5303 336.06 37.5303C368.58 37.5303 384.83 59.2103 384.83 85.8803C384.83 89.5403 384.54 94.2303 384.08 97.0103C383.95 97.8103 383.25 98.3903 382.44 98.3903H316.14C315.09 98.3903 314.3 99.3503 314.5 100.39C316.97 113.41 326.28 119.65 338.98 119.65C351.68 119.65 358.8 115.01 363.03 108.13C364.05 106.46 366.34 106.15 367.73 107.54L381.96 121.77C382.54 122.35 382.62 123.27 382.14 123.93C374.29 134.51 360.7 143.83 338.58 143.83C306.06 143.83 286.26 122.15 286.26 90.6803H286.25ZM316.08 81.3003H356.1C357.11 81.3003 357.88 80.4103 357.76 79.4103C356.2 67.0803 348.98 60.4603 336.27 60.4603C323.56 60.4603 316.41 66.8803 314.43 79.3603C314.27 80.3803 315.05 81.3003 316.08 81.3003Z" fill="#0F0F0F"/>
<path d="M401.089 111.52V63.9996C401.089 63.0796 400.339 62.3296 399.419 62.3296H387.539C386.619 62.3296 385.869 61.5796 385.869 60.6596V41.2696C385.869 40.3496 386.619 39.5996 387.539 39.5996H399.419C400.339 39.5996 401.089 38.8496 401.089 37.9296V28.5196C401.089 27.8996 401.429 27.3296 401.979 27.0396L426.839 13.9996C428.679 13.0296 430.889 14.3696 430.889 16.4496V37.9296C430.889 38.8496 431.639 39.5996 432.559 39.5996H457.569C458.489 39.5996 459.239 40.3496 459.239 41.2696V60.6596C459.239 61.5796 458.489 62.3296 457.569 62.3296H432.559C431.639 62.3296 430.889 63.0796 430.889 63.9996V106.1C430.889 114.44 435.059 117.35 440.889 117.35C445.499 117.35 449.689 114.69 452.849 111.13C454.419 109.36 457.299 109.91 458.079 112.14L463.939 128.87C464.399 130.19 464.089 131.66 463.119 132.67C458.089 137.95 448.259 143.83 434.219 143.83C411.709 143.83 401.079 130.49 401.079 111.52H401.089Z" fill="#0F0F0F"/>
<path d="M467.789 140.07V41.2795C467.789 40.3595 468.539 39.6095 469.459 39.6095H495.929C496.849 39.6095 497.599 40.3595 497.599 41.2795V59.9795C497.599 61.8095 500.129 62.2995 500.799 60.5995C505.799 47.9195 515.249 37.5195 530.529 37.5195C545.809 37.5195 553.869 47.1095 553.869 63.1595C553.869 63.7095 553.869 64.2595 553.849 64.7995C553.479 77.1795 543.109 86.9195 530.719 86.9195H523.529C521.909 86.9195 520.919 85.1095 521.829 83.7695C524.489 79.8395 526.569 74.5095 526.569 70.0395C526.569 64.1995 523.859 59.8295 517.399 59.8295C507.189 59.8295 497.599 70.8795 497.599 87.7595V140.08C497.599 141 496.849 141.75 495.929 141.75H469.459C468.539 141.75 467.789 141 467.789 140.08V140.07Z" fill="#0F0F0F"/>
<path d="M560.119 25.8598V3.75984C560.119 2.83984 560.869 2.08984 561.789 2.08984H588.259C589.179 2.08984 589.929 2.83984 589.929 3.75984V25.8498C589.929 26.7698 589.179 27.5198 588.259 27.5198H561.789C560.869 27.5198 560.119 26.7698 560.119 25.8498V25.8598ZM560.119 140.07V41.2798C560.119 40.3598 560.869 39.6098 561.789 39.6098H588.259C589.179 39.6098 589.929 40.3598 589.929 41.2798V140.08C589.929 141 589.179 141.75 588.259 141.75H561.789C560.869 141.75 560.119 141 560.119 140.08V140.07Z" fill="#0F0F0F"/>
<path d="M612.02 140.07V64C612.02 63.08 611.27 62.33 610.35 62.33H599.51C598.59 62.33 597.84 61.58 597.84 60.66V41.27C597.84 40.35 598.59 39.6 599.51 39.6H610.35C611.27 39.6 612.02 38.85 612.02 37.93V37.1C612.02 15.01 625.15 0 649.54 0C660.81 0 669.48 4.04 674.84 7.79C676.52 8.97 677.11 11.19 676.22 13.04L669.55 26.93C668.59 28.93 665.99 29.45 664.32 27.99C660.93 25.02 656.72 22.92 652.05 22.92C644.96 22.92 641.84 26.88 641.84 33.55V37.93C641.84 38.85 642.59 39.6 643.51 39.6H665.81C666.73 39.6 667.48 40.35 667.48 41.27V60.66C667.48 61.58 666.73 62.33 665.81 62.33H643.51C642.59 62.33 641.84 63.08 641.84 64V140.08C641.84 141 641.09 141.75 640.17 141.75H613.7C612.78 141.75 612.03 141 612.03 140.08L612.02 140.07Z" fill="#0F0F0F"/>
<path d="M665.369 91.3196C665.099 60.4196 690.889 35.2796 721.689 37.7296C750.529 40.0296 768.539 61.3596 768.539 90.6696C768.539 121.93 748.319 143.82 716.429 143.82C684.539 143.82 665.639 122.24 665.369 91.3196ZM738.319 90.6796C738.319 69.6296 729.569 61.7096 716.849 61.7096C704.129 61.7096 695.589 69.6296 695.589 90.6796C695.589 111.73 704.339 119.65 716.849 119.65C729.359 119.65 738.319 111.52 738.319 90.6796Z" fill="#0F0F0F"/>
<path d="M763.28 139.12L796.04 92.0098C796.43 91.4498 796.44 90.7098 796.07 90.1398L764.62 42.1798C763.89 41.0698 764.69 39.5998 766.01 39.5998H795.56C796.13 39.5998 796.67 39.8898 796.97 40.3798L807.7 57.4598C807.7 57.4598 807.75 57.5398 807.77 57.5898L816.23 74.1598C816.85 75.3798 818.6 75.3698 819.21 74.1398L826.67 59.0398C826.67 59.0398 826.711 58.9598 826.741 58.9198L837.89 40.3998C838.19 39.8998 838.73 39.5898 839.32 39.5898H868.58C869.92 39.5898 870.71 41.0798 869.96 42.1898L837.76 89.7198C837.38 90.2798 837.38 91.0198 837.76 91.5898L869.77 139.12C870.52 140.23 869.72 141.72 868.39 141.72H838.9C838.32 141.72 837.781 141.42 837.48 140.92L825.46 121.29L817.38 106.71C816.74 105.55 815.06 105.57 814.44 106.75L807.12 120.87L795.51 140.88C795.21 141.39 794.66 141.71 794.07 141.71H764.66C763.31 141.71 762.52 140.2 763.29 139.09L763.28 139.12Z" fill="#0F0F0F"/>
<path d="M878.5 41.1604V39.6104H887.41V41.1604H883.79V50.9304H882.11V41.1604H878.5Z" fill="#0F0F0F"/>
<path d="M891.079 41.0304V50.9304H889.449V39.6104H892.699L895.379 49.5104H895.689L898.439 39.6104H901.669V50.9304H900.049V41.0304H899.729L897.029 50.9304H894.069L891.389 41.0304H891.079Z" fill="#0F0F0F"/>
<defs>
<linearGradient id="paint0_linear_17297_506632" x1="-24.7002" y1="46.0579" x2="87.3864" y2="103.379" gradientUnits="userSpaceOnUse">
<stop stop-color="#0F0F0F"/>
<stop offset="0.584586" stop-color="#636562"/>
</linearGradient>
<linearGradient id="paint1_linear_17297_506632" x1="19.2939" y1="46.057" x2="131.381" y2="103.378" gradientUnits="userSpaceOnUse">
<stop stop-color="#0F0F0F"/>
<stop offset="0.584586" stop-color="#636562"/>
</linearGradient>
<linearGradient id="paint2_linear_17297_506632" x1="-49.3891" y1="91.7169" x2="131.315" y2="227.502" gradientUnits="userSpaceOnUse">
<stop stop-color="#0F0F0F"/>
<stop offset="0.584586" stop-color="#636562"/>
</linearGradient>
</defs>
</svg>
